<?xml version="1.0" encoding="UTF-8" standalone="no"?>
<!DOCTYPE svg PUBLIC "-//W3C//DTD SVG 1.1//EN"
 "http://www.w3.org/Graphics/SVG/1.1/DTD/svg11.dtd">
<!-- Generated by graphviz version 2.47.3 (20210619.1520)
 -->
<!-- Title: dependencies Pages: 1 -->
<svg width="2390pt" height="174pt"
 viewBox="0.00 0.00 2390.00 173.80" xmlns="http://www.w3.org/2000/svg" xmlns:xlink="http://www.w3.org/1999/xlink">
<g id="graph0" class="graph" transform="scale(1 1) rotate(0) translate(4 169.8)">
<title>dependencies</title>
<polygon fill="white" stroke="transparent" points="-4,4 -4,-169.8 2386,-169.8 2386,4 -4,4"/>
<text text-anchor="middle" x="1191" y="-8.2" font-family="sans-serif" font-size="14.00">dependencies</text>
<g id="clust1" class="cluster">
<title>cluster_AppModule</title>
<polygon fill="none" stroke="black" stroke-dasharray="1,5" points="8,-32.8 8,-157.8 2374,-157.8 2374,-32.8 8,-32.8"/>
</g>
<g id="clust2" class="cluster">
<title>cluster_AppModule_declarations</title>
<polygon fill="none" stroke="black" points="16,-40.8 16,-92.8 2366,-92.8 2366,-40.8 16,-40.8"/>
</g>
<!-- AppComponent -->
<g id="node1" class="node">
<title>AppComponent</title>
<polygon fill="#ffffb3" stroke="black" points="2357.94,-84.8 2252.06,-84.8 2252.06,-48.8 2357.94,-48.8 2357.94,-84.8"/>
<text text-anchor="middle" x="2305" y="-62.6" font-family="Times,serif" font-size="14.00">AppComponent</text>
</g>
<!-- AppModule -->
<g id="node17" class="node">
<title>AppModule</title>
<polygon fill="#8dd3c7" stroke="black" points="1317.66,-149.8 1314.66,-153.8 1293.66,-153.8 1290.66,-149.8 1234.34,-149.8 1234.34,-113.8 1317.66,-113.8 1317.66,-149.8"/>
<text text-anchor="middle" x="1276" y="-127.6" font-family="Times,serif" font-size="14.00">AppModule</text>
</g>
<!-- AppComponent&#45;&gt;AppModule -->
<g id="edge1" class="edge">
<title>AppComponent&#45;&gt;AppModule</title>
<path fill="none" stroke="black" d="M2305,-85.12C2305,-108.46 2305,-145.8 2305,-145.8 2305,-145.8 1327.93,-145.8 1327.93,-145.8"/>
<polygon fill="black" stroke="black" points="1327.93,-142.3 1317.93,-145.8 1327.93,-149.3 1327.93,-142.3"/>
</g>
<!-- BestOfferLinePipe -->
<g id="node2" class="node">
<title>BestOfferLinePipe</title>
<polygon fill="#ffffb3" stroke="black" points="2233.74,-84.8 2112.26,-84.8 2112.26,-48.8 2233.74,-48.8 2233.74,-84.8"/>
<text text-anchor="middle" x="2173" y="-62.6" font-family="Times,serif" font-size="14.00">BestOfferLinePipe</text>
</g>
<!-- BestOfferLinePipe&#45;&gt;AppModule -->
<g id="edge2" class="edge">
<title>BestOfferLinePipe&#45;&gt;AppModule</title>
<path fill="none" stroke="black" d="M2173,-85.09C2173,-107.01 2173,-140.8 2173,-140.8 2173,-140.8 1327.76,-140.8 1327.76,-140.8"/>
<polygon fill="black" stroke="black" points="1327.76,-137.3 1317.76,-140.8 1327.76,-144.3 1327.76,-137.3"/>
</g>
<!-- ContentComponent -->
<g id="node3" class="node">
<title>ContentComponent</title>
<polygon fill="#ffffb3" stroke="black" points="2093.67,-84.8 1968.33,-84.8 1968.33,-48.8 2093.67,-48.8 2093.67,-84.8"/>
<text text-anchor="middle" x="2031" y="-62.6" font-family="Times,serif" font-size="14.00">ContentComponent</text>
</g>
<!-- ContentComponent&#45;&gt;AppModule -->
<g id="edge3" class="edge">
<title>ContentComponent&#45;&gt;AppModule</title>
<path fill="none" stroke="black" d="M2031,-84.83C2031,-105.57 2031,-136.8 2031,-136.8 2031,-136.8 1327.67,-136.8 1327.67,-136.8"/>
<polygon fill="black" stroke="black" points="1327.67,-133.3 1317.67,-136.8 1327.67,-140.3 1327.67,-133.3"/>
</g>
<!-- FooterComponent -->
<g id="node4" class="node">
<title>FooterComponent</title>
<polygon fill="#ffffb3" stroke="black" points="1949.88,-84.8 1832.12,-84.8 1832.12,-48.8 1949.88,-48.8 1949.88,-84.8"/>
<text text-anchor="middle" x="1891" y="-62.6" font-family="Times,serif" font-size="14.00">FooterComponent</text>
</g>
<!-- FooterComponent&#45;&gt;AppModule -->
<g id="edge4" class="edge">
<title>FooterComponent&#45;&gt;AppModule</title>
<path fill="none" stroke="black" d="M1891,-84.91C1891,-104.14 1891,-131.8 1891,-131.8 1891,-131.8 1327.79,-131.8 1327.79,-131.8"/>
<polygon fill="black" stroke="black" points="1327.79,-128.3 1317.79,-131.8 1327.79,-135.3 1327.79,-128.3"/>
</g>
<!-- HeaderComponent -->
<g id="node5" class="node">
<title>HeaderComponent</title>
<polygon fill="#ffffb3" stroke="black" points="1813.74,-84.8 1692.26,-84.8 1692.26,-48.8 1813.74,-48.8 1813.74,-84.8"/>
<text text-anchor="middle" x="1753" y="-62.6" font-family="Times,serif" font-size="14.00">HeaderComponent</text>
</g>
<!-- HeaderComponent&#45;&gt;AppModule -->
<g id="edge5" class="edge">
<title>HeaderComponent&#45;&gt;AppModule</title>
<path fill="none" stroke="black" d="M1753,-85.1C1753,-103.07 1753,-127.8 1753,-127.8 1753,-127.8 1327.91,-127.8 1327.91,-127.8"/>
<polygon fill="black" stroke="black" points="1327.91,-124.3 1317.91,-127.8 1327.91,-131.3 1327.91,-124.3"/>
</g>
<!-- HelpComponent -->
<g id="node6" class="node">
<title>HelpComponent</title>
<polygon fill="#ffffb3" stroke="black" points="1674.05,-84.8 1565.95,-84.8 1565.95,-48.8 1674.05,-48.8 1674.05,-84.8"/>
<text text-anchor="middle" x="1620" y="-62.6" font-family="Times,serif" font-size="14.00">HelpComponent</text>
</g>
<!-- HelpComponent&#45;&gt;AppModule -->
<g id="edge6" class="edge">
<title>HelpComponent&#45;&gt;AppModule</title>
<path fill="none" stroke="black" d="M1620,-84.83C1620,-101.2 1620,-122.8 1620,-122.8 1620,-122.8 1327.84,-122.8 1327.84,-122.8"/>
<polygon fill="black" stroke="black" points="1327.84,-119.3 1317.84,-122.8 1327.84,-126.3 1327.84,-119.3"/>
</g>
<!-- NumberFormatPipe -->
<g id="node7" class="node">
<title>NumberFormatPipe</title>
<polygon fill="#ffffb3" stroke="black" points="1547.7,-84.8 1420.3,-84.8 1420.3,-48.8 1547.7,-48.8 1547.7,-84.8"/>
<text text-anchor="middle" x="1484" y="-62.6" font-family="Times,serif" font-size="14.00">NumberFormatPipe</text>
</g>
<!-- NumberFormatPipe&#45;&gt;AppModule -->
<g id="edge7" class="edge">
<title>NumberFormatPipe&#45;&gt;AppModule</title>
<path fill="none" stroke="black" d="M1484,-84.99C1484,-99.98 1484,-118.8 1484,-118.8 1484,-118.8 1328.09,-118.8 1328.09,-118.8"/>
<polygon fill="black" stroke="black" points="1328.09,-115.3 1318.09,-118.8 1328.09,-122.3 1328.09,-115.3"/>
</g>
<!-- OddsComponent -->
<g id="node8" class="node">
<title>OddsComponent</title>
<polygon fill="#ffffb3" stroke="black" points="1402.38,-84.8 1291.62,-84.8 1291.62,-48.8 1402.38,-48.8 1402.38,-84.8"/>
<text text-anchor="middle" x="1347" y="-62.6" font-family="Times,serif" font-size="14.00">OddsComponent</text>
</g>
<!-- OddsComponent&#45;&gt;AppModule -->
<g id="edge8" class="edge">
<title>OddsComponent&#45;&gt;AppModule</title>
<path fill="none" stroke="black" d="M1304.69,-84.91C1304.69,-84.91 1304.69,-103.79 1304.69,-103.79"/>
<polygon fill="black" stroke="black" points="1301.19,-103.79 1304.69,-113.79 1308.19,-103.79 1301.19,-103.79"/>
</g>
<!-- OddsLineComponent -->
<g id="node9" class="node">
<title>OddsLineComponent</title>
<polygon fill="#ffffb3" stroke="black" points="1273.04,-84.8 1136.96,-84.8 1136.96,-48.8 1273.04,-48.8 1273.04,-84.8"/>
<text text-anchor="middle" x="1205" y="-62.6" font-family="Times,serif" font-size="14.00">OddsLineComponent</text>
</g>
<!-- OddsLineComponent&#45;&gt;AppModule -->
<g id="edge9" class="edge">
<title>OddsLineComponent&#45;&gt;AppModule</title>
<path fill="none" stroke="black" d="M1253.72,-84.91C1253.72,-84.91 1253.72,-103.79 1253.72,-103.79"/>
<polygon fill="black" stroke="black" points="1250.22,-103.79 1253.72,-113.79 1257.22,-103.79 1250.22,-103.79"/>
</g>
<!-- SnapComponent -->
<g id="node10" class="node">
<title>SnapComponent</title>
<polygon fill="#ffffb3" stroke="black" points="1118.83,-84.8 1009.17,-84.8 1009.17,-48.8 1118.83,-48.8 1118.83,-84.8"/>
<text text-anchor="middle" x="1064" y="-62.6" font-family="Times,serif" font-size="14.00">SnapComponent</text>
</g>
<!-- SnapComponent&#45;&gt;AppModule -->
<g id="edge10" class="edge">
<title>SnapComponent&#45;&gt;AppModule</title>
<path fill="none" stroke="black" d="M1064,-84.99C1064,-99.98 1064,-118.8 1064,-118.8 1064,-118.8 1224.12,-118.8 1224.12,-118.8"/>
<polygon fill="black" stroke="black" points="1224.12,-122.3 1234.12,-118.8 1224.12,-115.3 1224.12,-122.3"/>
</g>
<!-- SpinnerComponent -->
<g id="node11" class="node">
<title>SpinnerComponent</title>
<polygon fill="#ffffb3" stroke="black" points="991.38,-84.8 866.62,-84.8 866.62,-48.8 991.38,-48.8 991.38,-84.8"/>
<text text-anchor="middle" x="929" y="-62.6" font-family="Times,serif" font-size="14.00">SpinnerComponent</text>
</g>
<!-- SpinnerComponent&#45;&gt;AppModule -->
<g id="edge11" class="edge">
<title>SpinnerComponent&#45;&gt;AppModule</title>
<path fill="none" stroke="black" d="M929,-84.83C929,-101.2 929,-122.8 929,-122.8 929,-122.8 1224.14,-122.8 1224.14,-122.8"/>
<polygon fill="black" stroke="black" points="1224.14,-126.3 1234.14,-122.8 1224.14,-119.3 1224.14,-126.3"/>
</g>
<!-- SwitchSvgComponent -->
<g id="node12" class="node">
<title>SwitchSvgComponent</title>
<polygon fill="#ffffb3" stroke="black" points="849,-84.8 707,-84.8 707,-48.8 849,-48.8 849,-84.8"/>
<text text-anchor="middle" x="778" y="-62.6" font-family="Times,serif" font-size="14.00">SwitchSvgComponent</text>
</g>
<!-- SwitchSvgComponent&#45;&gt;AppModule -->
<g id="edge12" class="edge">
<title>SwitchSvgComponent&#45;&gt;AppModule</title>
<path fill="none" stroke="black" d="M778,-85.1C778,-103.07 778,-127.8 778,-127.8 778,-127.8 1223.97,-127.8 1223.97,-127.8"/>
<polygon fill="black" stroke="black" points="1223.97,-131.3 1233.97,-127.8 1223.97,-124.3 1223.97,-131.3"/>
</g>
<!-- TriggerComponent -->
<g id="node13" class="node">
<title>TriggerComponent</title>
<polygon fill="#ffffb3" stroke="black" points="688.81,-84.8 565.19,-84.8 565.19,-48.8 688.81,-48.8 688.81,-84.8"/>
<text text-anchor="middle" x="627" y="-62.6" font-family="Times,serif" font-size="14.00">TriggerComponent</text>
</g>
<!-- TriggerComponent&#45;&gt;AppModule -->
<g id="edge13" class="edge">
<title>TriggerComponent&#45;&gt;AppModule</title>
<path fill="none" stroke="black" d="M627,-84.91C627,-104.14 627,-131.8 627,-131.8 627,-131.8 1223.92,-131.8 1223.92,-131.8"/>
<polygon fill="black" stroke="black" points="1223.92,-135.3 1233.92,-131.8 1223.92,-128.3 1223.92,-135.3"/>
</g>
<!-- TriggerSvgComponent -->
<g id="node14" class="node">
<title>TriggerSvgComponent</title>
<polygon fill="#ffffb3" stroke="black" points="547.59,-84.8 402.41,-84.8 402.41,-48.8 547.59,-48.8 547.59,-84.8"/>
<text text-anchor="middle" x="475" y="-62.6" font-family="Times,serif" font-size="14.00">TriggerSvgComponent</text>
</g>
<!-- TriggerSvgComponent&#45;&gt;AppModule -->
<g id="edge14" class="edge">
<title>TriggerSvgComponent&#45;&gt;AppModule</title>
<path fill="none" stroke="black" d="M475,-84.83C475,-105.57 475,-136.8 475,-136.8 475,-136.8 1224.34,-136.8 1224.34,-136.8"/>
<polygon fill="black" stroke="black" points="1224.34,-140.3 1234.34,-136.8 1224.34,-133.3 1224.34,-140.3"/>
</g>
<!-- UserFeedbackMessageComponent -->
<g id="node15" class="node">
<title>UserFeedbackMessageComponent</title>
<polygon fill="#ffffb3" stroke="black" points="384.38,-84.8 173.62,-84.8 173.62,-48.8 384.38,-48.8 384.38,-84.8"/>
<text text-anchor="middle" x="279" y="-62.6" font-family="Times,serif" font-size="14.00">UserFeedbackMessageComponent</text>
</g>
<!-- UserFeedbackMessageComponent&#45;&gt;AppModule -->
<g id="edge15" class="edge">
<title>UserFeedbackMessageComponent&#45;&gt;AppModule</title>
<path fill="none" stroke="black" d="M279,-85.09C279,-107.01 279,-140.8 279,-140.8 279,-140.8 1224.11,-140.8 1224.11,-140.8"/>
<polygon fill="black" stroke="black" points="1224.11,-144.3 1234.11,-140.8 1224.11,-137.3 1224.11,-144.3"/>
</g>
<!-- WebcamComponent -->
<g id="node16" class="node">
<title>WebcamComponent</title>
<polygon fill="#ffffb3" stroke="black" points="155.58,-84.8 24.42,-84.8 24.42,-48.8 155.58,-48.8 155.58,-84.8"/>
<text text-anchor="middle" x="90" y="-62.6" font-family="Times,serif" font-size="14.00">WebcamComponent</text>
</g>
<!-- WebcamComponent&#45;&gt;AppModule -->
<g id="edge16" class="edge">
<title>WebcamComponent&#45;&gt;AppModule</title>
<path fill="none" stroke="black" d="M90,-85.12C90,-108.46 90,-145.8 90,-145.8 90,-145.8 1224.14,-145.8 1224.14,-145.8"/>
<polygon fill="black" stroke="black" points="1224.14,-149.3 1234.14,-145.8 1224.14,-142.3 1224.14,-149.3"/>
</g>
</g>
</svg>
