<?xml version="1.0" encoding="UTF-8" standalone="no"?>
<!DOCTYPE svg PUBLIC "-//W3C//DTD SVG 1.1//EN"
 "http://www.w3.org/Graphics/SVG/1.1/DTD/svg11.dtd">
<!-- Generated by graphviz version 2.47.3 (20210619.1520)
 -->
<!-- Title: dependencies Pages: 1 -->
<svg width="1950pt" height="174pt"
 viewBox="0.00 0.00 1950.00 173.80" xmlns="http://www.w3.org/2000/svg" xmlns:xlink="http://www.w3.org/1999/xlink">
<g id="graph0" class="graph" transform="scale(1 1) rotate(0) translate(4 169.8)">
<title>dependencies</title>
<polygon fill="white" stroke="transparent" points="-4,4 -4,-169.8 1946,-169.8 1946,4 -4,4"/>
<text text-anchor="middle" x="971" y="-8.2" font-family="sans-serif" font-size="14.00">dependencies</text>
<g id="clust1" class="cluster">
<title>cluster_AppModule</title>
<polygon fill="none" stroke="black" stroke-dasharray="1,5" points="8,-32.8 8,-157.8 1934,-157.8 1934,-32.8 8,-32.8"/>
</g>
<g id="clust2" class="cluster">
<title>cluster_AppModule_declarations</title>
<polygon fill="none" stroke="black" points="16,-40.8 16,-92.8 1926,-92.8 1926,-40.8 16,-40.8"/>
</g>
<!-- AppComponent -->
<g id="node1" class="node">
<title>AppComponent</title>
<polygon fill="#ffffb3" stroke="black" points="1917.94,-84.8 1812.06,-84.8 1812.06,-48.8 1917.94,-48.8 1917.94,-84.8"/>
<text text-anchor="middle" x="1865" y="-62.6" font-family="Times,serif" font-size="14.00">AppComponent</text>
</g>
<!-- AppModule -->
<g id="node14" class="node">
<title>AppModule</title>
<polygon fill="#8dd3c7" stroke="black" points="1105.66,-149.8 1102.66,-153.8 1081.66,-153.8 1078.66,-149.8 1022.34,-149.8 1022.34,-113.8 1105.66,-113.8 1105.66,-149.8"/>
<text text-anchor="middle" x="1064" y="-127.6" font-family="Times,serif" font-size="14.00">AppModule</text>
</g>
<!-- AppComponent&#45;&gt;AppModule -->
<g id="edge1" class="edge">
<title>AppComponent&#45;&gt;AppModule</title>
<path fill="none" stroke="black" d="M1865,-84.89C1865,-107.93 1865,-144.8 1865,-144.8 1865,-144.8 1115.66,-144.8 1115.66,-144.8"/>
<polygon fill="black" stroke="black" points="1115.66,-141.3 1105.66,-144.8 1115.66,-148.3 1115.66,-141.3"/>
</g>
<!-- ContentComponent -->
<g id="node2" class="node">
<title>ContentComponent</title>
<polygon fill="#ffffb3" stroke="black" points="1793.67,-84.8 1668.33,-84.8 1668.33,-48.8 1793.67,-48.8 1793.67,-84.8"/>
<text text-anchor="middle" x="1731" y="-62.6" font-family="Times,serif" font-size="14.00">ContentComponent</text>
</g>
<!-- ContentComponent&#45;&gt;AppModule -->
<g id="edge2" class="edge">
<title>ContentComponent&#45;&gt;AppModule</title>
<path fill="none" stroke="black" d="M1731,-84.84C1731,-106.46 1731,-139.8 1731,-139.8 1731,-139.8 1115.72,-139.8 1115.72,-139.8"/>
<polygon fill="black" stroke="black" points="1115.72,-136.3 1105.72,-139.8 1115.72,-143.3 1115.72,-136.3"/>
</g>
<!-- FooterComponent -->
<g id="node3" class="node">
<title>FooterComponent</title>
<polygon fill="#ffffb3" stroke="black" points="1649.88,-84.8 1532.12,-84.8 1532.12,-48.8 1649.88,-48.8 1649.88,-84.8"/>
<text text-anchor="middle" x="1591" y="-62.6" font-family="Times,serif" font-size="14.00">FooterComponent</text>
</g>
<!-- FooterComponent&#45;&gt;AppModule -->
<g id="edge3" class="edge">
<title>FooterComponent&#45;&gt;AppModule</title>
<path fill="none" stroke="black" d="M1591,-85.02C1591,-105.17 1591,-134.8 1591,-134.8 1591,-134.8 1115.79,-134.8 1115.79,-134.8"/>
<polygon fill="black" stroke="black" points="1115.79,-131.3 1105.79,-134.8 1115.79,-138.3 1115.79,-131.3"/>
</g>
<!-- HeaderComponent -->
<g id="node4" class="node">
<title>HeaderComponent</title>
<polygon fill="#ffffb3" stroke="black" points="1513.74,-84.8 1392.26,-84.8 1392.26,-48.8 1513.74,-48.8 1513.74,-84.8"/>
<text text-anchor="middle" x="1453" y="-62.6" font-family="Times,serif" font-size="14.00">HeaderComponent</text>
</g>
<!-- HeaderComponent&#45;&gt;AppModule -->
<g id="edge4" class="edge">
<title>HeaderComponent&#45;&gt;AppModule</title>
<path fill="none" stroke="black" d="M1453,-85.02C1453,-103.63 1453,-129.8 1453,-129.8 1453,-129.8 1116,-129.8 1116,-129.8"/>
<polygon fill="black" stroke="black" points="1116,-126.3 1106,-129.8 1116,-133.3 1116,-126.3"/>
</g>
<!-- HelpComponent -->
<g id="node5" class="node">
<title>HelpComponent</title>
<polygon fill="#ffffb3" stroke="black" points="1374.05,-84.8 1265.95,-84.8 1265.95,-48.8 1374.05,-48.8 1374.05,-84.8"/>
<text text-anchor="middle" x="1320" y="-62.6" font-family="Times,serif" font-size="14.00">HelpComponent</text>
</g>
<!-- HelpComponent&#45;&gt;AppModule -->
<g id="edge5" class="edge">
<title>HelpComponent&#45;&gt;AppModule</title>
<path fill="none" stroke="black" d="M1320,-84.83C1320,-101.86 1320,-124.8 1320,-124.8 1320,-124.8 1115.7,-124.8 1115.7,-124.8"/>
<polygon fill="black" stroke="black" points="1115.7,-121.3 1105.7,-124.8 1115.7,-128.3 1115.7,-121.3"/>
</g>
<!-- OddsComponent -->
<g id="node6" class="node">
<title>OddsComponent</title>
<polygon fill="#ffffb3" stroke="black" points="1247.38,-84.8 1136.62,-84.8 1136.62,-48.8 1247.38,-48.8 1247.38,-84.8"/>
<text text-anchor="middle" x="1192" y="-62.6" font-family="Times,serif" font-size="14.00">OddsComponent</text>
</g>
<!-- OddsComponent&#45;&gt;AppModule -->
<g id="edge6" class="edge">
<title>OddsComponent&#45;&gt;AppModule</title>
<path fill="none" stroke="black" d="M1192,-85.04C1192,-100.37 1192,-119.8 1192,-119.8 1192,-119.8 1115.91,-119.8 1115.91,-119.8"/>
<polygon fill="black" stroke="black" points="1115.91,-116.3 1105.91,-119.8 1115.91,-123.3 1115.91,-116.3"/>
</g>
<!-- SnapComponent -->
<g id="node7" class="node">
<title>SnapComponent</title>
<polygon fill="#ffffb3" stroke="black" points="1118.83,-84.8 1009.17,-84.8 1009.17,-48.8 1118.83,-48.8 1118.83,-84.8"/>
<text text-anchor="middle" x="1064" y="-62.6" font-family="Times,serif" font-size="14.00">SnapComponent</text>
</g>
<!-- SnapComponent&#45;&gt;AppModule -->
<g id="edge7" class="edge">
<title>SnapComponent&#45;&gt;AppModule</title>
<path fill="none" stroke="black" d="M1064,-84.91C1064,-84.91 1064,-103.79 1064,-103.79"/>
<polygon fill="black" stroke="black" points="1060.5,-103.79 1064,-113.79 1067.5,-103.79 1060.5,-103.79"/>
</g>
<!-- SpinnerComponent -->
<g id="node8" class="node">
<title>SpinnerComponent</title>
<polygon fill="#ffffb3" stroke="black" points="991.38,-84.8 866.62,-84.8 866.62,-48.8 991.38,-48.8 991.38,-84.8"/>
<text text-anchor="middle" x="929" y="-62.6" font-family="Times,serif" font-size="14.00">SpinnerComponent</text>
</g>
<!-- SpinnerComponent&#45;&gt;AppModule -->
<g id="edge8" class="edge">
<title>SpinnerComponent&#45;&gt;AppModule</title>
<path fill="none" stroke="black" d="M929,-85.04C929,-100.37 929,-119.8 929,-119.8 929,-119.8 1012.03,-119.8 1012.03,-119.8"/>
<polygon fill="black" stroke="black" points="1012.03,-123.3 1022.03,-119.8 1012.03,-116.3 1012.03,-123.3"/>
</g>
<!-- SwitchSvgComponent -->
<g id="node9" class="node">
<title>SwitchSvgComponent</title>
<polygon fill="#ffffb3" stroke="black" points="849,-84.8 707,-84.8 707,-48.8 849,-48.8 849,-84.8"/>
<text text-anchor="middle" x="778" y="-62.6" font-family="Times,serif" font-size="14.00">SwitchSvgComponent</text>
</g>
<!-- SwitchSvgComponent&#45;&gt;AppModule -->
<g id="edge9" class="edge">
<title>SwitchSvgComponent&#45;&gt;AppModule</title>
<path fill="none" stroke="black" d="M778,-84.83C778,-101.86 778,-124.8 778,-124.8 778,-124.8 1012.11,-124.8 1012.11,-124.8"/>
<polygon fill="black" stroke="black" points="1012.11,-128.3 1022.11,-124.8 1012.11,-121.3 1012.11,-128.3"/>
</g>
<!-- TriggerComponent -->
<g id="node10" class="node">
<title>TriggerComponent</title>
<polygon fill="#ffffb3" stroke="black" points="688.81,-84.8 565.19,-84.8 565.19,-48.8 688.81,-48.8 688.81,-84.8"/>
<text text-anchor="middle" x="627" y="-62.6" font-family="Times,serif" font-size="14.00">TriggerComponent</text>
</g>
<!-- TriggerComponent&#45;&gt;AppModule -->
<g id="edge10" class="edge">
<title>TriggerComponent&#45;&gt;AppModule</title>
<path fill="none" stroke="black" d="M627,-85.02C627,-103.63 627,-129.8 627,-129.8 627,-129.8 1012.1,-129.8 1012.1,-129.8"/>
<polygon fill="black" stroke="black" points="1012.1,-133.3 1022.1,-129.8 1012.1,-126.3 1012.1,-133.3"/>
</g>
<!-- TriggerSvgComponent -->
<g id="node11" class="node">
<title>TriggerSvgComponent</title>
<polygon fill="#ffffb3" stroke="black" points="547.59,-84.8 402.41,-84.8 402.41,-48.8 547.59,-48.8 547.59,-84.8"/>
<text text-anchor="middle" x="475" y="-62.6" font-family="Times,serif" font-size="14.00">TriggerSvgComponent</text>
</g>
<!-- TriggerSvgComponent&#45;&gt;AppModule -->
<g id="edge11" class="edge">
<title>TriggerSvgComponent&#45;&gt;AppModule</title>
<path fill="none" stroke="black" d="M475,-85.02C475,-105.17 475,-134.8 475,-134.8 475,-134.8 1012.11,-134.8 1012.11,-134.8"/>
<polygon fill="black" stroke="black" points="1012.11,-138.3 1022.11,-134.8 1012.11,-131.3 1012.11,-138.3"/>
</g>
<!-- UserFeedbackMessageComponent -->
<g id="node12" class="node">
<title>UserFeedbackMessageComponent</title>
<polygon fill="#ffffb3" stroke="black" points="384.38,-84.8 173.62,-84.8 173.62,-48.8 384.38,-48.8 384.38,-84.8"/>
<text text-anchor="middle" x="279" y="-62.6" font-family="Times,serif" font-size="14.00">UserFeedbackMessageComponent</text>
</g>
<!-- UserFeedbackMessageComponent&#45;&gt;AppModule -->
<g id="edge12" class="edge">
<title>UserFeedbackMessageComponent&#45;&gt;AppModule</title>
<path fill="none" stroke="black" d="M279,-84.84C279,-106.46 279,-139.8 279,-139.8 279,-139.8 1012.07,-139.8 1012.07,-139.8"/>
<polygon fill="black" stroke="black" points="1012.07,-143.3 1022.07,-139.8 1012.07,-136.3 1012.07,-143.3"/>
</g>
<!-- WebcamComponent -->
<g id="node13" class="node">
<title>WebcamComponent</title>
<polygon fill="#ffffb3" stroke="black" points="155.58,-84.8 24.42,-84.8 24.42,-48.8 155.58,-48.8 155.58,-84.8"/>
<text text-anchor="middle" x="90" y="-62.6" font-family="Times,serif" font-size="14.00">WebcamComponent</text>
</g>
<!-- WebcamComponent&#45;&gt;AppModule -->
<g id="edge13" class="edge">
<title>WebcamComponent&#45;&gt;AppModule</title>
<path fill="none" stroke="black" d="M90,-84.89C90,-107.93 90,-144.8 90,-144.8 90,-144.8 1012.15,-144.8 1012.15,-144.8"/>
<polygon fill="black" stroke="black" points="1012.15,-148.3 1022.15,-144.8 1012.15,-141.3 1012.15,-148.3"/>
</g>
</g>
</svg>
